<svg width="30" height="31" viewBox="0 0 30 31" fill="none" xmlns="http://www.w3.org/2000/svg">
<path d="M29.0039 28.227L22.1016 21.0945C23.8125 18.9391 24.8438 16.1781 24.8438 13.1689C24.8438 6.2666 19.4238 0.666016 12.7441 0.666016C6.05859 0.666016 0.644531 6.2666 0.644531 13.1689C0.644531 20.0713 6.05859 25.6719 12.7441 25.6719C15.6562 25.6719 18.3223 24.6123 20.4082 22.8443L27.3105 29.9707C27.7793 30.4551 28.5352 30.4551 29.0039 29.9707C29.4727 29.4924 29.4727 28.7053 29.0039 28.227ZM12.7441 23.1834C7.39453 23.1834 3.04688 18.6908 3.04688 13.1689C3.04688 7.64707 7.39453 3.14844 12.7441 3.14844C18.0879 3.14844 22.4414 7.64707 22.4414 13.1689C22.4414 18.6908 18.0879 23.1834 12.7441 23.1834Z" fill="#2C71A1"/>
</svg>
