<svg width="51" height="58" viewBox="0 0 51 58" fill="none" xmlns="http://www.w3.org/2000/svg">
<g clip-path="url(#clip0)">
<path d="M39.3741 13.211C37.1317 10.6608 34.1508 9.25676 30.9796 9.25676C27.8085 9.25676 24.8272 10.6608 22.5852 13.211C20.3428 15.7611 19.1082 19.1516 19.1082 22.7576C19.1082 26.364 20.3428 29.7545 22.5852 32.3042C24.8276 34.8543 27.8085 36.2589 30.9796 36.2589C34.1508 36.2589 37.1317 34.8543 39.3741 32.3042C41.6164 29.7545 42.851 26.364 42.851 22.7576C42.851 19.1516 41.6164 15.7611 39.3741 13.211ZM30.9796 30.9603C29.9407 30.9603 29.0987 30.0027 29.0987 28.8212C29.0987 27.6397 29.9407 26.6822 30.9796 26.6822C32.0185 26.6822 32.8605 27.6397 32.8605 28.8212C32.8605 30.0027 32.0185 30.9603 30.9796 30.9603ZM33.6204 25.7153C33.0481 24.6657 32.0609 24.0391 30.9796 24.0391C29.8987 24.0391 28.9112 24.6657 28.3388 25.7148L25.7984 23.9227C26.9198 21.8664 28.8567 20.6389 30.9796 20.6389C33.1026 20.6389 35.0395 21.8664 36.1609 23.9227L33.6204 25.7153ZM37.9686 22.9833C36.4543 20.2074 33.8418 18.5502 30.9796 18.5502C28.1174 18.5502 25.505 20.2074 23.9906 22.9833L21.4502 21.1911C23.5136 17.4086 27.0758 15.15 30.98 15.15C34.8835 15.15 38.4461 17.4086 40.5091 21.1911L37.9686 22.9833Z" fill="white"/>
<path d="M8.60179 39.9914L1.49373 48.0751C-0.498072 50.3402 -0.498072 54.0254 1.49373 56.2906C2.48943 57.423 3.79758 57.9894 5.10573 57.9894C6.4135 57.9894 7.72165 57.423 8.71735 56.2906L15.8258 48.2065L8.60179 39.9914Z" fill="white"/>
<path d="M45.1362 6.65794C37.3301 -2.21915 24.6291 -2.21915 16.823 6.65794C13.0418 10.9582 10.9593 16.6758 10.9593 22.7576C10.9593 26.8517 11.9044 30.7798 13.6748 34.2225L10.7161 37.5873L17.9398 45.8024L20.9027 42.4327C24.005 44.4868 27.4921 45.5152 30.9796 45.5152C36.1064 45.5152 41.2332 43.296 45.1362 38.8573C48.9175 34.557 50.9999 28.8394 50.9999 22.7576C50.9999 16.6758 48.9175 10.9582 45.1362 6.65794ZM41.488 34.7083C38.6811 37.9006 34.9492 39.6586 30.9796 39.6586C27.01 39.6586 23.2778 37.9006 20.4712 34.7083C17.6643 31.5161 16.1184 27.272 16.1184 22.7576C16.1184 18.2432 17.6643 13.9991 20.4712 10.8069C23.2782 7.61464 27.01 5.85657 30.9796 5.85657C34.9492 5.85657 38.6811 7.61464 41.488 10.8069C44.295 13.9991 45.8409 18.2432 45.8409 22.7576C45.8409 27.272 44.295 31.5161 41.488 34.7083Z" fill="white"/>
</g>
<defs>
<clipPath id="clip0">
<rect width="51" height="58" fill="white"/>
</clipPath>
</defs>
</svg>
